<?xml version="1.0" encoding="utf-8"?>
<!-- Generator: Adobe Illustrator 20.1.0, SVG Export Plug-In . SVG Version: 6.00 Build 0)  -->
<svg version="1.1" id="Слой_1" xmlns="http://www.w3.org/2000/svg" xmlns:xlink="http://www.w3.org/1999/xlink" x="0px" y="0px"
	 viewBox="0 0 250 250" style="enable-background:new 0 0 250 250;" xml:space="preserve">
<g>
	<path d="M125.4,48.5c43.4,0.4,80.3,37.2,80.2,80.1c-0.1,44.3-36.5,81.7-80.4,81.1c-46.1-0.6-80.7-35.8-80.8-82
		C44.4,84.5,82.2,48.1,125.4,48.5z M194.7,144.1c3.9-8.2,2.9-16.1,2-23.5c-46.7-44.3-113.8-32.5-144.4,2c0.5,6.5,1.1,13.9,1.8,22.6
		c5-2.9,8-4.7,11.1-6.4c12.5-6.5,25.3-10.6,37.9-1c12.4,9.4,13.1,22.8,10.8,36.7c-0.8,4.8-2.8,9.4-4.4,14.1c-1,2.9-2.2,5.8-3.6,9.7
		c13.1,4.6,25.3,4.8,36.9,0.5c-2.7-12.3-6.7-23-7.2-34c-1.3-25.3,18.6-38.7,42.3-29.3C183.4,137.7,188.7,141,194.7,144.1z
		 M192,105.3C181.8,73,149,53,116.2,57.1c-27.7,3.5-55,26-56.6,47.2C103.2,76.5,146.7,76.7,192,105.3z M96.1,195.2
		c8.6-12.4,11.5-24.3,9.8-37.2c-1.7-12.7-11.5-19.7-24-17c-9.3,2-17.6,6.2-24.4,13.9C65.1,173.4,77.3,186.7,96.1,195.2z
		 M192.4,154.5c-8.1-7.6-16.2-12.2-25.7-13.8c-11.4-1.9-20.8,4.5-22.5,15.8c-2.2,13.7,0.4,26.5,9.9,38.5
		C172.5,186.7,184.7,173.5,192.4,154.5z"/>
	<path d="M126,103.3c10,0.6,17.1,9,16.2,19.2c-0.8,9.3-9.2,16.5-18.4,15.8c-9.4-0.7-16.5-8.5-16.3-18
		C107.8,110.1,115.9,102.7,126,103.3z M134.5,120.7c0-5.1-4.3-9.1-9.7-9c-5.4,0.1-9.7,4.2-9.5,9.2c0.1,4.8,5,9.4,9.7,9.4
		C129.8,130.2,134.5,125.5,134.5,120.7z"/>
	<path d="M125,235.2c-59.2,0-107.3-48.1-107.3-107.3S65.8,20.6,125,20.6s107.3,48.1,107.3,107.3S184.2,235.2,125,235.2z M125,28.6
		c-54.8,0-99.3,44.5-99.3,99.3c0,54.8,44.5,99.3,99.3,99.3c54.8,0,99.3-44.5,99.3-99.3C224.3,73.1,179.8,28.6,125,28.6z"/>
</g>
</svg>
