<?xml version="1.0" encoding="utf-8"?>
<!-- Svg Vector Icons : http://www.onlinewebfonts.com/icon -->
<!DOCTYPE svg PUBLIC "-//W3C//DTD SVG 1.1//EN" "http://www.w3.org/Graphics/SVG/1.1/DTD/svg11.dtd">
<svg version="1.1" xmlns="http://www.w3.org/2000/svg" xmlns:xlink="http://www.w3.org/1999/xlink" x="0px" y="0px" viewBox="0 0 1000 1000" enable-background="new 0 0 1000 1000" xml:space="preserve">
<metadata> Svg Vector Icons : http://www.onlinewebfonts.com/icon </metadata>
<g><g><path d="M872.4,49.2H892V10H206c-54.9,0-98,43.1-98,98v764.4C108,939,159,990,225.6,990H892V166.8h-19.6c-31.4,0-58.8-27.4-58.8-58.8S841,49.2,872.4,49.2z M206,49.2h588c0,0-19.6,27.4-19.6,58.8s19.6,58.8,19.6,58.8H206c-31.4,0-58.8-27.4-58.8-58.8S174.6,49.2,206,49.2z M264.8,950.8h-39.2c-43.1,0-78.4-35.3-78.4-78.4v-686c15.7,11.8,35.3,19.6,58.8,19.6h58.8L264.8,950.8L264.8,950.8z M852.8,206v744.8H304V206h235.2H852.8z"/></g><g></g><g></g><g></g><g></g><g></g><g></g><g></g><g></g><g></g><g></g><g></g><g></g><g></g><g></g><g></g></g>
</svg>