<?xml version="1.0" encoding="utf-8"?>
<!-- Generator: Adobe Illustrator 19.2.1, SVG Export Plug-In . SVG Version: 6.00 Build 0)  -->
<svg version="1.1" id="Слой_1" xmlns="http://www.w3.org/2000/svg" xmlns:xlink="http://www.w3.org/1999/xlink" x="0px" y="0px"
	 viewBox="0 0 137.5 205.2" style="enable-background:new 0 0 137.5 205.2;" xml:space="preserve">
<style type="text/css">
	.st0{fill:none;}
	.st1{fill:#010103;}
	.st2{fill:#FFFFFF;}
</style>
<title>chemodany</title>
<path class="st0" d="M100.3,189.1c-2.5-0.1-5.1,0-7.6,0h-4.1c-0.7,0-1.4,0-2.1-0.1c-0.4,0-0.9,0-1.3,0c1.7,3.9,6.2,5.9,10.3,4.5
	C97.3,192.9,99.7,191.1,100.3,189.1z"/>
<path class="st0" d="M44.1,193.9L44.1,193.9c2.9-0.1,6.3-2,7.4-4.8H36.8C38.1,192.1,41,193.9,44.1,193.9z"/>
<g>
	<path class="st0" d="M122.3,170.4c0-0.6,0-1.2,0-1.8l0-64.1c0.2-26.7,0.2-54.3-0.5-56.4l-0.1-0.2l-0.3,0c-2.2-0.5-5.2-0.4-10.7-0.3
		H95c-35.7-0.1-76.2-0.3-78.9,0.3L15.8,48l-0.1,0.3c-0.9,2.7-0.8,27.6-0.5,50.8c0.1,4.1,0.1,7.4,0.1,9v60.1c0,4.1,0.5,6.4,1.8,7.6
		c1.5,1.4,3.7,1.4,7.2,1.3h2.2h17c21.4,0.1,27.6,0.1,40,0.1c25.9,0,36.6-0.1,37.7-0.4c0,0,0.1-0.1,0.1-0.1l0.1-0.1
		c0.9-0.8,1.1-2.4,1.1-4.1L122.3,170.4z"/>
	<path class="st0" d="M102.4,187.6l0-0.4l-0.4,0c-2.3-0.1-4.7-0.1-7-0.1c-0.8,0-1.6,0-2.4,0h-4c-0.4,0-0.7,0-1.1,0
		c-0.3,0-0.6,0-0.8,0c-0.5,0-1,0-1.4,0c-1,0-1.6,0.1-2,0.5c-0.3,0.3-0.3,0.7-0.2,1.1c0.7,2.6,2.4,4.8,4.7,6c1.5,0.9,3.3,1.4,5,1.4
		c0.9,0,1.8-0.1,2.7-0.4l0.7-0.2C98.9,194.5,102.8,191.3,102.4,187.6z"/>
	<path class="st0" d="M49.3,37.4l0.3,0.1c1,0.2,1.5,0.4,12.6,0.4c13.8,0,25-0.2,26.1-0.4l0.3-0.1l0.2-26.7c0-1.1-0.2-1.2-0.6-1.3
		l-0.3-0.1l-37.9,0l-0.4,0c-0.6,0.1-0.7,0.2-0.7,2V22c0,0.4,0,0.8,0,1.3c0,0.6,0,1.3,0,2v0c-0.1,4-0.2,9.5,0.3,11.7L49.3,37.4z"/>
	<path class="st0" d="M34.4,187.7c0.2,4.4,4.8,8.2,9.7,8.2h0.1c4.4-0.1,9.4-3.5,9.7-8.2l0-0.5H34.4L34.4,187.7z"/>
	<path class="st1" d="M130.5,165.7L130.5,165.7c0-0.8,0-1.5,0-2.2c0-0.7,0-1.4,0-2.1l0-55.5c0.1-16.3,0.3-54.5-0.2-57.8
		c-0.6-4.2-4.8-8.8-9.2-8.4c-1.4,0.1-20.2,0.5-22.7-0.4l-1.4-0.5l-0.2-1.5c-0.3-4-0.4-8.1-0.2-12.2c0-0.8,0-1.7,0-2.5
		c0-0.7,0-1.3,0-2c0-1,0-2,0-3.1l0-1.6l0-0.2c0-4.3,0.1-8.7-0.3-12.8c-0.1-0.8-0.1-0.8-1.3-1.5L94.4,1h-51c-0.2,0.1-0.4,0.2-0.5,0.3
		l-0.3,0.1c-0.5,0.2-0.8,0.5-1.1,0.9c-0.8,1.4-0.5,12.7-0.4,18.2l0,0.2c0.2,7.5,0.4,13.9-0.3,16.8l-0.5,1.8l-1.8,0.1
		c-1.9,0.1-4.3,0.1-6.9,0l-1.3,0c-5.8-0.1-14.4-0.4-17.8,1.3c-5.1,2.6-5.3,6.9-5.3,15.5V154c0,1.3,0,3.2-0.1,5.3l0,0.2
		c-0.1,5.9-0.3,14.9,0.4,18c0.6,2.3,2,4.4,3.9,5.7c2.2,1.6,5.8,1.7,8.4,1.8l0.1,0c2.4,0.1,4,0.1,5.1,1.2l0.2,0.1l0.1,0.2
		c0.6,1,1,2.1,1.1,3.3c0,0.3,0.1,0.7,0.2,1.1c1.4,4.9,4.9,9,9.5,11.2c1.4,0.6,2.9,1.1,4.5,1.5c0.7,0.1,1.3,0.3,1.9,0.5h2.7
		c0.5-0.2,1-0.3,1.5-0.4c0.2,0,0.3,0,0.5-0.1l0.2,0c0.4-0.1,0.8-0.2,1.3-0.3l0.4-0.1c3-0.8,5.7-2.3,7.9-4.5c3.4-3.5,3.8-5,5.3-10.7
		l0.8-2.9l10.9-0.1l0.5,1.8c0.4,1.3,0.7,2.4,0.9,3.4c0.8,3.1,1.2,4.9,4.7,8.5c2.7,2.7,6.3,4.5,10.1,4.9c0.6,0.1,1.2,0.2,1.7,0.4h2.7
		c0.7-0.2,1.5-0.4,2.3-0.6l0.2,0c0.4-0.1,0.7-0.1,1-0.2c2.5-0.8,5.9-2.5,7.7-4.5c3.5-4,3.9-5.4,4.5-8l0-0.1c0.3-1.1,0.6-2.3,1.1-3.8
		l0.5-1.6l1.7-0.1c0.4,0,0.6-0.1,0.7-0.1c0.3,0,0.4,0,1.2,0c4.9,0,10.4,0,13.3-4.5C130.8,177.3,130.6,171.1,130.5,165.7z M47,25.3
		c0-0.7,0-1.4,0-2c0-0.5,0-0.9,0-1.3V11.3c0-1.4,0-3.6,2.5-4L50,7.3h38.2l0.4,0.1c2.1,0.3,2.2,2.4,2.2,3.2l0,0.6l-0.2,27.6l-1.7,0.6
		c-1.6,0.5-24.1,0.5-26.7,0.5c-11.4,0-11.9-0.1-13.1-0.4L47.6,39l-0.3-1.5C46.7,35.1,46.9,29.7,47,25.3z M55.9,187.8
		c-0.3,5.9-6.4,10.1-11.7,10.2h-0.1c-6,0-11.5-4.7-11.7-10.1l-0.1-2.6H56L55.9,187.8z M98.9,196.4l0.2,0.1l-2.2,0.8
		c-1.3,0.5-2.7,0.7-4,0.7c-2.1,0-4.2-0.6-6-1.6c-2.8-1.5-4.9-4.2-5.7-7.3c-0.3-1,0-2.1,0.7-2.9c1.2-1.4,2.9-1.3,4.9-1.2
		c0.3,0,0.6,0,0.9,0c0.3,0,0.7,0,1,0h4c0.8,0,1.6,0,2.4,0c2.3,0,4.8,0,7.1,0.1l2.2,0.1l0.2,2.2C104.8,191.4,101.8,194.6,98.9,196.4z
		 M124.3,170.4l-0.8,0L124.3,170.4c0.1,3,0.2,6-1.8,7.8l-0.2,0.1c-0.8,0.7-1.1,0.9-39,0.9c-12.4,0-18.6,0-40-0.1H24.2
		c-3.6,0.1-6.5,0.1-8.6-1.9c-1.7-1.7-2.4-4.3-2.4-9V108c0-1.6,0-4.8-0.1-8.9C12.8,63,13,50,13.8,47.6l0.5-1.3l1.4-0.3
		c2.7-0.6,33.1-0.5,79.3-0.3h15.7c5.6-0.1,8.7-0.2,11.1,0.3l1.4,0.2l0.5,1.4c0.6,1.7,0.9,11.8,0.6,57v64.1c0,0.2,0,0.4,0,0.6
		L124.3,170.4z"/>
	<path class="st2" d="M124.3,104.6c0.3-45.2,0-55.4-0.6-57l-0.5-1.4l-1.4-0.2c-2.4-0.5-5.5-0.5-11.1-0.3H95
		c-46.2-0.2-76.7-0.2-79.3,0.3l-1.4,0.3l-0.5,1.3C13,50,12.8,63,13.2,99.1c0.1,4.1,0.1,7.4,0.1,8.9v60.1c0,4.7,0.7,7.4,2.4,9
		c2.1,2,5,2,8.6,1.9h19.1c21.4,0.1,27.6,0.1,40,0.1c37.9,0,38.2-0.2,39-0.9l0.2-0.1c2-1.7,1.9-4.8,1.8-7.8l-0.8,0l0.8,0l0-1
		c0-0.2,0-0.4,0-0.6V104.6z M121.2,176.7c0,0-0.1,0-0.1,0.1c-1.2,0.3-11.8,0.4-37.7,0.4c-12.4,0-18.6,0-40-0.1h-17h-2.2
		c-3.4,0.1-5.7,0.1-7.2-1.3c-1.3-1.3-1.8-3.5-1.8-7.6V108c0-1.6,0-4.8-0.1-9c-0.2-23.2-0.4-48.1,0.5-50.8l0.1-0.3l0.3-0.1
		c2.7-0.6,43.2-0.4,78.9-0.3h15.8c5.5-0.1,8.5-0.2,10.7,0.3l0.3,0l0.1,0.2c0.7,2.1,0.7,29.7,0.5,56.4l0,64.1c0,0.6,0,1.1,0,1.8
		l0.1,2.1C122.4,174.3,122.2,175.8,121.2,176.7L121.2,176.7z"/>
	<path class="st2" d="M104.2,185.3l-2.2-0.1c-2.3-0.1-4.7-0.1-7.1-0.1c-0.8,0-1.6,0-2.4,0h-4c-0.4,0-0.7,0-1,0c-0.3,0-0.6,0-0.9,0
		c-2-0.1-3.8-0.2-4.9,1.2c-0.7,0.8-0.9,1.9-0.7,2.9c0.8,3.1,2.9,5.8,5.7,7.3c1.8,1,3.9,1.6,6,1.6c1.4,0,2.7-0.2,4-0.7l2.2-0.8
		l-0.2-0.1c3-1.7,6-5,5.6-8.9L104.2,185.3z M96.2,195.4l-0.7,0.2c-0.9,0.3-1.8,0.4-2.7,0.4c-1.8,0-3.5-0.5-5-1.4
		c-2.3-1.2-4.1-3.4-4.7-6c-0.1-0.4,0-0.8,0.2-1.1c0.4-0.4,1-0.5,2-0.5c0.4,0,0.8,0,1.4,0c0.3,0,0.5,0,0.8,0c0.3,0,0.7,0,1.1,0h4
		c0.8,0,1.6,0,2.4,0c2.3,0,4.7,0,7,0.1l0.4,0l0,0.4C102.8,191.3,98.9,194.5,96.2,195.4z"/>
	<path class="st2" d="M47.6,39l1.5,0.4c1.2,0.3,1.7,0.4,13.1,0.4c2.6,0,25.1,0,26.7-0.5l1.7-0.6l0.2-27.6l0-0.6
		c0-0.8-0.1-2.8-2.2-3.2l-0.4-0.1H50l-0.5,0.1C47,7.7,47,9.9,47,11.3V22c0,0.4,0,0.8,0,1.3c0,0.6,0,1.3,0,2
		c-0.1,4.4-0.2,9.8,0.3,12.2L47.6,39z"/>
	<path class="st2" d="M32.4,187.8c0.3,5.4,5.7,10.1,11.7,10.1h0.1c5.3-0.1,11.4-4.3,11.7-10.2l0.1-2.6H32.3L32.4,187.8z M54,187.7
		c-0.2,4.8-5.3,8.2-9.7,8.2h-0.1c-5,0-9.5-3.8-9.7-8.2l0-0.5H54L54,187.7z"/>
</g>
<path class="st2" d="M103.4,186.2l-1.3-0.1c-3-0.1-6.3-0.1-9.4-0.1h-4c-0.7,0-1.4,0-1.9-0.1c-1.9-0.1-3.3-0.1-4.1,0.9
	c-0.5,0.6-0.6,1.3-0.4,2c0.7,2.9,2.6,5.3,5.2,6.6c1.7,1,3.6,1.5,5.5,1.5c1.3,0,2.5-0.2,3.7-0.7c3.1-1.1,7.3-4.6,6.9-8.9L103.4,186.2
	z M88.8,192.9c-1.6-0.9-2.9-2.2-3.6-3.9c0.4,0,0.9,0,1.3,0c0.6,0,1.3,0.1,2.1,0.1h4.1c2.5,0,5.1-0.1,7.6,0c-0.6,2-3,3.8-4.8,4.4
	C93.3,194.4,90.8,194.1,88.8,192.9L88.8,192.9z"/>
<path class="st2" d="M33.5,187.8c0.2,4.9,5.2,9.2,10.7,9.2h0.1c4.8-0.1,10.4-3.9,10.7-9.2l0.1-1.6l-21.6,0L33.5,187.8z M51.6,189.2
	c-1.1,2.7-4.5,4.7-7.4,4.8h-0.1c-3.2,0-6.1-1.9-7.4-4.7L51.6,189.2z"/>
<path class="st1" d="M32.5,84.5c2,1,28.4,0.4,34,0.4h38.6c1-0.1,1.8-0.9,1.7-1.9c0-0.6-0.3-1.1-0.8-1.4c-1.1-0.7-55.4-0.3-67.2-0.3
	C36.2,81.3,29.8,80.5,32.5,84.5L32.5,84.5L32.5,84.5z"/>
</svg>
