<?xml version="1.0" encoding="utf-8"?>
<!-- Generator: Adobe Illustrator 21.1.0, SVG Export Plug-In . SVG Version: 6.00 Build 0)  -->
<svg version="1.1" id="Слой_1" xmlns="http://www.w3.org/2000/svg" xmlns:xlink="http://www.w3.org/1999/xlink" x="0px" y="0px"
	 viewBox="0 0 201.3 201.3" style="enable-background:new 0 0 201.3 201.3;" xml:space="preserve">
<title>cosm</title>
<g>
	<path d="M36.7,0.7v74.7c0,33.7,20.9,74.1,26.9,85.5v40.4h74.1v-35l0,0l1.3-2.7c1.3-2,25.6-48.5,25.6-77.4V0H36.7V0.7z M127.6,191.2
		H73.7v-24.9h53.9V191.2z M154.5,86.2c0,22.9-17.5,59.9-22.9,70H72.4c-5.4-10.1-26.3-49.8-26.3-81.5V10.1h107.7v76.1H154.5z"/>
	<path d="M130.3,39.7H71V99h59.3V39.7z M120.2,88.9H81.1V49.8h39.1V88.9z"/>
</g>
</svg>
