<?xml version="1.0" encoding="utf-8"?>
<!-- Generator: Adobe Illustrator 19.2.1, SVG Export Plug-In . SVG Version: 6.00 Build 0)  -->
<svg version="1.1" id="Слой_1" xmlns="http://www.w3.org/2000/svg" xmlns:xlink="http://www.w3.org/1999/xlink" x="0px" y="0px"
	 viewBox="0 0 31.7 30" style="enable-background:new 0 0 31.7 30;" xml:space="preserve">
<title>dom</title>
<g>
	<path d="M19.2,10.9C19.1,9.2,17.7,8,16.1,8c0,0,0,0,0,0c-1.7,0-3.2,1.4-3.2,3.2c0,0.8,0.3,1.6,0.9,2.2s1.4,0.9,2.2,0.9h0
		c0.1,0,0.2,0,0.3,0c0,0,0.1,0,0.1,0c1.6-0.3,2.8-1.6,2.8-3.3L19.2,10.9C19.2,10.9,19.2,10.9,19.2,10.9z M15.9,9.1
		c0.1,0,0.1,0,0.2,0h0c0,0,0,0,0,0c1.1,0,2,0.8,2,1.9V11c0,1.1-0.8,2-1.8,2.2l-0.1,0c-1.1,0.1-2.1-0.7-2.2-1.9
		c-0.1-0.5,0.1-1.1,0.5-1.5C14.9,9.4,15.3,9.2,15.9,9.1z"/>
	<path d="M27.5,10.7c-0.2-1.6-1.3-2.9-2.9-3.2C25,6.7,25.8,4.8,24,3.1c-1.2-1.2-2.8-1.4-4.6-0.5c-0.4-1.8-2-2.6-3.5-2.6h0
		c-1.4,0-3.1,0.8-3.5,2.5C11,1.8,9.7,1.9,8.6,2.5C7.6,3.2,7,4.5,7.1,6l0,0c0.1,0.6,0.3,1.2,0.5,1.8c-1.5,0.4-2.5,1.6-2.7,3.1
		c-0.2,1.3,0.5,3.2,2.7,4C7,16,6.9,17.2,7.5,18.2c0.6,1.2,1.8,2,3.2,2c0.6,0,1.2-0.1,1.7-0.3c0.1,0,0.2-0.1,0.3-0.1
		c0.2,1.2,1.2,1.8,2,2.2c0,0.3,0,0.7,0,1.1c0,0.3,0,0.7,0,0.9c-1.6-2.3-4.3-2.5-7.4-0.6c-0.1,0.1-0.2,0.1-0.3,0.2
		c-0.2,0.2-0.3,0.5-0.2,0.7c0.8,1.6,1.4,2.4,2.6,3.5l0,0c1.1,0.9,2.5,0.8,3.9,0.8c0.4,0,0.8,0,1.1,0v0.9c0,0.3,0.2,0.6,0.6,0.6h1.5
		c0,0,0,0,0,0c0.3,0,0.5-0.2,0.6-0.5c0-0.2,0.1-0.5,0.1-0.8c0-0.1,0-0.1,0-0.1c0.2-0.2,0.7-0.1,1.3-0.1c1.5,0.1,3.7,0.2,5.1-1.7
		c0.4-0.6,0.7-1.5,1.2-3c0.1-0.1,0.1-0.3,0-0.5c-0.1-0.2-0.2-0.3-0.4-0.3c0,0-0.1,0-0.2-0.1c-0.6-0.2-1.2-0.4-1.4-0.4
		c-1.9-0.1-3.1-0.2-4.9,1.1c-0.3,0.2-0.5,0.4-0.7,0.5c-0.1,0.1-0.2,0.1-0.2,0.2c0,0,0-0.1,0-0.2l0-0.1c0,0,0-0.8,0.1-2
		c0.2-0.1,0.3-0.1,0.5-0.1c0.5-0.1,0.8-0.2,1.4-0.9l0,0c0.4-0.5,0.7-1.2,0.8-1.8c1,0.6,2.5,1.1,4.1-0.2c1.5-1.1,1.9-2.8,1.1-4.6
		C27.1,13.8,27.7,12,27.5,10.7z M23.9,13.8c-0.3,0.1-0.4,0.5-0.2,0.8c0.6,1.1,1,2.7-0.5,3.8c-1.4,1.1-2.5,0.3-3.5-0.3l-0.2-0.1
		c-0.1-0.1-0.3-0.1-0.4-0.1c-0.3,0.1-0.5,0.3-0.5,0.6c0.1,0.7-0.1,1.5-0.6,2c-0.4,0.5-0.5,0.5-0.9,0.6c-0.3,0.1-0.6,0.2-0.9,0.3
		c-0.2,0.1-0.3,0.2-0.3,0.4c-0.1,1.5-0.1,2.9-0.1,3.4l0,0.1c0,0.4,0.1,0.7,0.4,0.8c0.2,0.1,0.5,0.1,1.1-0.5c0.2-0.3,0.5-0.6,1.3-1
		c0.6-0.4,1.5-0.7,3-0.7c1,0,1.6,0.1,1.8,0.3c0.1,0.2,0,0.6-0.3,1.2c-0.7,1.4-1.2,1.6-1.8,1.8c-1.4,0.4-2,0.4-2.9,0.4
		c-0.4,0-0.9-0.1-1.5,0c0,0-0.1,0-0.1,0c-0.2,0-0.4,0-0.7,0.2c-0.2,0.2-0.2,0.8-0.2,1.4h-0.3v-0.9c0-0.2-0.1-0.4-0.3-0.5l-0.6,0
		c-0.4,0-0.9,0-1.3,0C12.1,27.7,11,27.7,10,27c-1.1-0.9-1.5-1.5-2.1-2.7c2.8-1.6,4.8-1.3,6,0.7l0.5,0.6c0.1,0.2,0.5,0.3,0.8,0.3
		c0.2-0.1,0.4-0.3,0.4-0.5c0.1-0.7,0.1-2.9,0.1-3.7c0-0.2-0.1-0.4-0.3-0.5l-0.1,0c-1-0.5-1.6-0.8-1.6-2.1c0,0,0,0,0-0.1
		c0-0.1-0.1-0.3-0.2-0.4c-0.1-0.1-0.3-0.1-0.4-0.1c-0.4,0-0.8,0.2-1.2,0.3c-0.4,0.2-0.8,0.3-1.2,0.2c-0.9,0-1.8-0.6-2.2-1.4
		c-0.4-0.9-0.3-1.9,0.4-2.9c0-0.1,0.1-0.1,0.1-0.2C9,14.3,8.8,14,8.5,14c-2-0.5-2.6-1.8-2.5-2.9c0.1-1.3,1.2-2.3,2.5-2.3
		c0,0,0,0,0,0c0.1,0,0.3,0,0.4-0.1C9.2,8.4,9.2,8.1,9,7.9c-0.5-0.6-0.7-1.2-0.8-2c0-1.1,0.3-2,1.1-2.5c0.8-0.5,2.1-0.5,3.3,0.2
		c0.1,0,0.2,0.1,0.3,0.1c0.1,0,0.3-0.1,0.4-0.2c0.1-0.1,0.2-0.2,0.2-0.4c0-1.5,1.3-2.2,2.5-2.2c1.2,0,2.4,0.8,2.4,2.4
		c0,0.1,0,0.1,0,0.2c0,0.1,0.1,0.3,0.3,0.3c0.1,0.1,0.3,0.1,0.4,0.1c0.2,0,0.3-0.1,0.4-0.2c1.2-0.6,2.6-1.1,3.8,0.1
		c1.3,1.3,0.6,2.8,0.2,3.5c-0.1,0.1-0.2,0.3-0.2,0.5c0,0,0,0.1,0,0.2c0,0.1,0.1,0.3,0.2,0.4c0.1,0.1,0.2,0.2,0.4,0.2c0,0,0,0,0,0
		c1.6,0,2.5,1.2,2.6,2.3c0.1,1.1-0.4,2.5-2.4,2.9C24,13.7,23.9,13.8,23.9,13.8z"/>
</g>
</svg>
