<svg id="Слой_1" data-name="Слой 1" xmlns="http://www.w3.org/2000/svg" viewBox="0 0 208.63 211.6"><title>detodejda</title><path d="M223.28,132.93a6,6,0,0,1,1.16-1.36c0.16-.17.67-0.68,0.84-0.86,6.23-6.65,4-12.81,3.49-21.44-0.44-8.12,1.82-21.46-1.69-28.25-8.75-17-32.31-9-46.68-8.2-15.49.91-37.74-11.34-41.93,12.92-1.3,7.53-1.07,21.74-.76,29.76,0.68,18,7,16.86,7.93,20.92l-3,10.64-1.29,3.47-0.47.72-4.79,9.53-1,1.81c-1.27,3.14-12.64,20.6-13.3,33.15-0.59,11.22,4.83,20,10.45,25.41,14.83,14.24,34.52,14.95,50.35,1.27,4.75-4.1,10.68-14.07,15.46-21.16,8.21-12.19,9.93-12.27,15.75-20C226.77,163.93,238.59,155.65,223.28,132.93Zm-80.85-12.76c-0.77-6.36-.84-28.26.46-34.23,2.88-13.17,10.46-11.92,23.5-9.76,12,2,20.74,0,32.26-2.14,11.31-2.12,22,2.14,24.49,10.82,1.27,4.45.53,11.77,0.41,16.66-0.53,22.89,9,28.53-23,30.21-11.41.6-22.94,0.42-34.15,1.16C152.95,133.77,144.13,134.14,142.43,120.17ZM139.5,221c-7.37-5.3-13.27-12.48-13.51-25.61,13.15,0.4,26.16,4.77,33.56,12.52,4.4,4.61,9.61,10.47,10.28,17.37C157.45,228.56,148.86,227.69,139.5,221Zm55-22.37c-6.51,9.32-11.43,19-20.65,23.72-3.15-15.9-25-32.5-46.69-30.26-0.4-5.9,11.61-27,13.34-30.6s6.6-15.47,6.6-15.47a30.33,30.33,0,0,0,1.53-5.19,14.27,14.27,0,0,1,1.38-4.26c3.61,0.53,34.53-.14,51.47-1.23l0.35,1.39c-5.55,1-11.54,4-13.51,8.4,0,0-.34,2.6,1.76,6.17s17.5,20.13,23.52,22.7Zm22.91-27.81c-4-1.53-11.75-7.72-13.52-9.86a28.13,28.13,0,0,0-3.07-3.17s-9-7.8-9-10.4,3.57-4.66,3.57-4.66a21.32,21.32,0,0,1,3-1.36c12.42-5.21,7.9-4.27,20.18-7,3.55,4.45,8.36,10.51,7.33,18.71S219.51,165.6,217.42,170.77Z" transform="translate(-21.88 -20.68)"/><path d="M123.19,83.18c6.75-6.56,6.91-9.15,5.65-20.91C127.32,48.11,135,26.3,113,21.41c-8.2-1.82-18,.21-26.12,1.37-17.77,2.53-38.78-8-45.75,5.78C36.68,37.34,35.86,69,39.47,78.35c4.27,11,14.28.81-6,37.78-10.93,20-20.61,41.25,2.59,58.95,22.46,17.13,48,3.24,55.66-14l2.76-3.38a26,26,0,0,1,2.05-3s9-12.91,10.82-15.35c4.71-6.42,11.63-12.82,16.76-20.77C137.76,97.55,126.1,89.52,123.19,83.18ZM43.11,74.79C41.53,69,41.51,46,42.29,39.52,44,25.74,50,23.87,63.53,26.28s19.84,1.2,32.88-1.16c11.38-2.06,22.32-.05,26,8.59,1.77,4.11,1.35,26.55,1.88,33.78,1,14-8.47,13.91-20.74,14.61-11.7.67-23.21,0.8-35,1.33C57.07,84,46.11,85.82,43.11,74.79Zm9.15,102.52a46.42,46.42,0,0,1-13.23-6c-6.66-4.76-13.46-12.76-12.93-25.21a43.11,43.11,0,0,1,13.15,1.17c6.5,1.75,10,4.52,12.72,5.91a25.16,25.16,0,0,1,3.58,2.44c2.89,2,8.46,7.94,8.46,7.94,2.32,3.75,4.83,6.88,6,12.52C62.94,177,60.61,179.24,52.26,177.31ZM95.87,147c-0.73,1.52-9.77,14.22-10.48,14.76-2.83,3.77-6.14,8.71-11.23,11.18l-2-5.61L61.55,154.94l-5.82-5.05c-1.65-.89-2.46-1.44-3.68-2.18-2.23-1.37-1.29-1-3.8-1.74-9.11-3-11-3.74-21.53-3.39C30.05,123.87,56,92.5,48.15,87.23c17.09,3.37,37.6-1.54,55.15-1.23-22,9.85-19.62,11.8-.93,29.8,5.74,5.53,7.42,5.91,11,9.28ZM93.3,101.2c-4.51-6.62,3.56-8.63,8.83-10.75,6.65-2.67,8.18-4.27,16.27-5.48,11.48,11.71,7.73,25.32-1.75,36.16C111.4,119.17,95,103.75,93.3,101.2Z" transform="translate(-21.88 -20.68)"/></svg>