<svg id="Слой_1" data-name="Слой 1" xmlns="http://www.w3.org/2000/svg" viewBox="0 0 31.66 30"><title>dom</title><path d="M5.64,16.95V31h9.23V22.47h5.27V31h9.23V18.35c0-.69.07-1.24-0.66-1.24-0.91,0-.66,1.27-0.66,2.64V29c0,0.34.08,0.63-.25,0.63H21.46V21.07H13.55v8.57H7.21c-0.32,0-.26-0.26-0.25-0.57,0-1.53.07-11.84,0-12.17a0.67,0.67,0,0,0-1.29.05h0Z" transform="translate(-1.67 -1.04)"/><path d="M2.18,17.11c0.91,0,1.44-.92,2.24-1.71L5,14.9l0.14-.12,2.09-2c0.32-.33.55-0.55,0.91-0.91L10,10c0.31-.31.62-0.54,0.95-0.86l1.37-1.36C13,7.28,13.55,6.61,14.19,6l3.32-3.11c0.43,0.29.8,0.77,1.21,1.11l0.21,0.19,0.45,0.45,3.71,3.55c0.74,0.72,2.66,2.65,3.28,3.13a5.7,5.7,0,0,1,.47.45l1.59,1.53c0.13,0.11.14,0.12,0.26,0.23l0.66,0.66,0.13,0.12a25.16,25.16,0,0,0,3,2.74,0.66,0.66,0,0,0,.82-0.74,1.93,1.93,0,0,0-.85-1.05l-1-.95c-0.34-.35-0.61-0.62-1-0.95l-0.68-.63-0.09-.08-1-.93-0.25-.26L26,9.12,25.87,9,24.57,7.75l0,0-0.13-.12,0,0-0.09-.08L24,7.22c-0.16-.14-0.33-0.3-0.51-0.48L22.29,5.57l-0.13-.11-0.08-.08c-0.58-.54-1.14-1.21-1.75-1.71L18,1.51A4,4,0,0,0,17.51,1l-0.39.36L17,1.52,11.06,7.19l0,0-2,1.85c-0.67.57-1.21,1.28-1.87,1.83a5,5,0,0,0-.53.46,17.19,17.19,0,0,1-1.54,1.5c-0.64.51-1.12,1.19-1.75,1.71L2,15.85a0.65,0.65,0,0,0-.32.68,0.62,0.62,0,0,0,.5.58h0Z" transform="translate(-1.67 -1.04)"/><path d="M22.12,3.76c0,1.08.51,0.82,2.07,0.82a10.79,10.79,0,0,1,2.47.07C27,5,26.49,8.43,26.83,8.94a0.69,0.69,0,0,0,1.22-.23V3.27H22.62a0.63,0.63,0,0,0-.49.49h0Z" transform="translate(-1.67 -1.04)"/></svg>