<?xml version="1.0" encoding="utf-8"?>
<!-- Generator: Adobe Illustrator 19.2.1, SVG Export Plug-In . SVG Version: 6.00 Build 0)  -->
<svg version="1.1" id="_x31_" xmlns="http://www.w3.org/2000/svg" xmlns:xlink="http://www.w3.org/1999/xlink" x="0px" y="0px"
	 viewBox="0 0 261 261" style="enable-background:new 0 0 261 261;" xml:space="preserve">
<style type="text/css">
	.st0{fill:#010005;}
	.st1{fill:#FFFFFF;}
</style>
<path class="st0" d="M225.6,19.2h-5c-4.7,3.5-3,1.7-6.6,5.8c-10.8-6.8-11.2,1.3-10.4,3.3c0.3,0.8,6.1,8.6,0.5,5.4
	c-3.1-1.8-4.8-4.7-8.3-0.4c-3.7,4.8,0.9,7.1,2.8,9.9c-8.3,10.8,1.9,4.6-10.7,17.1l-43.1,43c-11.2-3.4-21.2-11-40.3-1.4
	C85.1,111.8,88,126.1,81,129.4c-3.1,1.5-15.9,2.1-21.3,3.7c-15.8,4.6-27,15.5-32.9,31.1c-1.2,3.1-1.7,7.6-3,10.3v13.4
	c4.6,9.8,4,30.3,35.5,48.8c9.7,5.7,16.4,5.4,20.9,7.5h13.4c2.4-1.1,6.6-1.7,9.5-2.7c37.2-13,32.6-48.2,35.5-54.5
	c3.3-7.1,17.6-4,27.5-23.5c3.2-6.3,4.9-12.3,4.5-20.2c-0.5-9.8-3.5-12.6-5.8-20c2.4-2.6,46.9-48,49.8-49.1c7-2.7,4.1,0.1,10.3-4.7
	c2.8,1.8,5.1,6.5,9.9,2.8c4.9-3.9,0.3-6.7-0.7-8.7c-0.1-0.2-1.7-2.3,1.5-1.5c0.1,0,0.4,0.1,0.6,0.1c1.2,0.4,1.4,1.2,2.9,2
	c2.8,1.4,10.8,0.7,4-10.1c3.7-3.1,2.6-2.3,5.8-6.2v-5.3C243.1,33.9,234.1,24.8,225.6,19.2z M143.6,172.1
	c-25.7,10.3-10.2,23.1-21.8,42.2c-31.4,51.9-112.2-8.4-81.4-55.4c14.2-21.7,32.5-15.3,43.9-20c15-6.2,6.5-24.8,32.8-30.8
	c18.7-4.3,34.1,11.7,39.6,22.2C165.9,147.4,157.2,166.6,143.6,172.1z M158.6,115l-5.6-5.7l46.6-47.1c2.8,1.4,4.7,3.3,5.9,5.9
	L158.6,115z M215.4,63.2l-10.6-10.5C206,49,219.4,34.1,223,29.9l14.9,15.3C233.8,48.7,219,62,215.4,63.2z"/>
<path class="st0" d="M116.2,127.6c-24.7,7-15.9,44.1,10.2,38.1c9.3-2.1,17.2-12.2,14.1-24.2C138,132.3,128.1,124.2,116.2,127.6z
	 M126,155.4c-8.1,3.6-17.2-2.9-13.8-12.8c1.4-4.2,2.5-3.3,5-4.4C130.6,131.9,135.8,151.1,126,155.4z"/>
<path class="st1" d="M23.8,187.9v56.3h56.3c-4.5-2.1-11.2-1.8-20.9-7.5C27.8,218.1,28.4,197.7,23.8,187.9z"/>
<path class="st0" d="M84.5,184.5c-7.6-7.6-15.1-18.2-20.3-14.1c-2.2,1.7-3.5,2-1.7,5.9c0.6,1.4,3.1,3.6,4.3,4.8l18.5,18.5
	c2.2,2.2,6.8,8.8,11.4,5.6C103.7,200.6,91,191.1,84.5,184.5z"/>
<path class="st1" d="M225.6,19.2c8.6,5.6,17.5,14.7,23.2,23.2V19.2H225.6z"/>
</svg>
