<?xml version="1.0" encoding="utf-8"?>
<!-- Generator: Adobe Illustrator 20.1.0, SVG Export Plug-In . SVG Version: 6.00 Build 0)  -->
<svg version="1.1" id="Слой_1" xmlns="http://www.w3.org/2000/svg" xmlns:xlink="http://www.w3.org/1999/xlink" x="0px" y="0px"
	 viewBox="0 0 250 250" style="enable-background:new 0 0 250 250;" xml:space="preserve">
<style type="text/css">
	.st0{fill:none;}
</style>
<path d="M219.8,44.8C208.1,31.8,194.4,25,180,25c-1.4,0-2.7,0.9-3.2,2.3l-27.7,82.8L60.4,110c-0.1-5.8-1.2-17.1-7.8-24.3
	c-3.8-4.2-8.8-6.4-14.8-6.7c-1.4-7.9-8.2-13.9-16.3-13.9C12.4,65.1,5,72.7,5,82.1C5,91.4,12.4,99,21.6,99c7.9,0,14.5-5.6,16.1-13.2
	c4.2,0.2,7.4,1.7,10,4.5c5.9,6.5,6.1,18.3,6,21.8c-0.2,0.6-0.3,1.3-0.2,2c6.3,33.9,25.9,60.9,52.2,75.1
	c-10.8,1.5-19.1,10.9-19.1,22.3c0,12.4,9.9,22.5,22,22.5s22-10.1,22-22.5c0-5.5-1.9-10.5-5.2-14.5c7.5,2,15.3,3.1,23.3,3.1
	c9.2,0,18.3-1.6,26.9-4.4c-3.9,4.1-6.4,9.7-6.4,15.8c0,12.4,9.9,22.5,22,22.5c12.1,0,22-10.1,22-22.5c0-12.4-9.9-22.5-22-22.5
	c-0.1,0-0.3,0-0.4,0c25.9-14.2,46.2-41,53.5-73.8c0.2-0.4,0.3-0.8,0.4-1.3C246.6,92,236.1,62.9,219.8,44.8z M21.6,92.2
	c-5.4,0-9.9-4.5-9.9-10.1s4.4-10.1,9.9-10.1c5.4,0,9.9,4.5,9.9,10.1S27,92.2,21.6,92.2z M108.7,227.1c-8.4,0-15.3-7-15.3-15.7
	c0-8.6,6.9-15.7,15.3-15.7s15.3,7,15.3,15.7C124,220.1,117.1,227.1,108.7,227.1z M206.7,211.5c0,8.6-6.9,15.7-15.3,15.7
	c-8.4,0-15.3-7-15.3-15.7c0-8.6,6.9-15.7,15.3-15.7C199.8,195.8,206.7,202.8,206.7,211.5z M182.3,31.9c14.6,0.9,25.7,9.9,32.5,17.5
	c14.4,16,24,41,23.5,60.8l-82.2-0.1L182.3,31.9z M148.8,193.2c-42.2,0-77.9-31.2-87.9-76.4l176.3,0.2
	C225.8,161.4,189.2,193.2,148.8,193.2z"/>
</svg>
