<?xml version="1.0" encoding="utf-8"?>
<!-- Generator: Adobe Illustrator 20.1.0, SVG Export Plug-In . SVG Version: 6.00 Build 0)  -->
<svg version="1.1" id="Слой_1" xmlns="http://www.w3.org/2000/svg" xmlns:xlink="http://www.w3.org/1999/xlink" x="0px" y="0px"
	 viewBox="0 0 250 250" style="enable-background:new 0 0 250 250;" xml:space="preserve">
<style type="text/css">
	.st0{fill:none;}
</style>
<path d="M234.9,33.3H21c-4.8,0-8.7,3.9-8.7,8.7v137.2c0,4.8,3.9,8.7,8.7,8.7h74.7c0,0.3,0,0.6,0,0.9v24.6c0,0.3,0,0.6,0.1,0.9H81.5
	c-2.3,0-4.1,1.8-4.1,4.1s1.8,4.1,4.1,4.1h87.4c2.3,0,4.1-1.8,4.1-4.1s-1.8-4.1-4.1-4.1h-13.5c0-0.3,0.1-0.6,0.1-0.9v-24.6
	c0-0.3,0-0.6,0-0.9h79.4c4.8,0,8.7-3.9,8.7-8.7V42.1C243.6,37.2,239.7,33.3,234.9,33.3z M147.3,188.9v24.6c0,0.3-0.3,0.5-0.5,0.5
	h-42.3c-0.3,0-0.5-0.3-0.5-0.5v-24.6c0-0.3,0.3-0.5,0.5-0.5h42.3C147.1,188.4,147.3,188.6,147.3,188.9z M235.4,179.3
	c0,0.3-0.3,0.5-0.5,0.5H21c-0.3,0-0.5-0.3-0.5-0.5V42.1c0-0.3,0.3-0.5,0.5-0.5h213.8c0.3,0,0.5,0.3,0.5,0.5V179.3z"/>
</svg>
