<?xml version="1.0" encoding="utf-8"?>
<!-- Generator: Adobe Illustrator 19.2.1, SVG Export Plug-In . SVG Version: 6.00 Build 0)  -->
<svg version="1.1" id="Слой_1" xmlns="http://www.w3.org/2000/svg" xmlns:xlink="http://www.w3.org/1999/xlink" x="0px" y="0px"
	 viewBox="0 0 250 250" style="enable-background:new 0 0 250 250;" xml:space="preserve">
<path d="M232.2,172c-0.8-2.4-1.5-4.7-2.3-6.7c-1.7-4.4-3.3-8.5-5.1-13.1c-3.9-10-3.9-10-8.4-14.2c-1.6-1.5-3.7-3.5-6.7-6.6
	c-3-3.1-5.9-6.1-9.1-9.1c-8.3-8-17-16.9-25.4-25.4c-6.7-6.8-13.6-13.9-20.3-20.4l-2.5-2.4c-5.3-5.2-10.7-10.5-16-16
	c-4.4-4.6-9.2-9.3-13.8-13.8c-4.5-4.5-9.2-9.1-13.5-13.6c-1.4-1.4-2.8-2.8-4.5-4.5c-2.5-2.4-2.5-2.4-2.9-2.6
	c-0.3-0.2-0.8-0.4-2.1-1.2h-3.2c-0.6,0.3-1.2,0.6-2,0.9c-2.2,0.8-5.6,2.1-10.8,7.1c-4.7,4.6-7.2,8.7-7.9,12.6
	c-0.6,3.6,0.5,5,2.4,6.8l112.5,112.5c1.4,1.3,2.3,2.3,3,3.1c2.2,2.4,2.2,2.4,6.4,4c0.8,0.3,1.9,0.7,3.1,1.2l1.7,0.7
	c16,6.5,25.9,9.6,29.4,9.3V179c-0.7-1.3-1.1-3-1.5-4.6C232.6,173.5,232.4,172.7,232.2,172z M213.7,142.2c-0.3,1.1-2,2.7-3.7,4.4
	l-0.5,0.5c-1.1,1-2.1,2-3.1,3.1l-2.4,2.5c-1.1,1.1-2.1,2.1-3.2,3.2l-0.4,0.5c-1.3,1.3-2.8,2.9-4.1,4l-0.5,0.4l-0.5-0.2
	c-1-0.4-4.8-4.1-12.3-11.7c-1.5-1.5-2.7-2.8-3.3-3.3c-2.3-2.2-4.3-4.3-6.4-6.5c-2.7-2.7-5.4-5.6-8.6-8.6c-2.1-1.9-4.4-4.4-6.5-6.5
	l-1.1-1.1c-9.1-9.3-18.8-18.9-28.1-28.2c-8.2-8.1-16.7-16.5-24.8-24.8L81.5,47.1c-3.2-2.9-0.5-6.5,1.4-9.2c0.5-0.7,1-1.5,1.4-2.1
	l0.5-0.8l0.8,0.4c1.3,0.6,18.5,17.8,51.9,51.4c7,7,12.4,12.5,14.6,14.6l34,34c0.8,0.8,1.6,1.6,2.3,2.3c1.5,1.4,2.7,1.6,3.1,1.1
	c0.5-0.5,0.3-1.5-0.6-2.5l-51.1-51.1c-30.1-29.8-47.1-46.9-50.7-50.9l-0.1,0.1L88.6,34c-0.3-0.3-0.4-0.5-0.5-0.6l-0.3-0.5l0.3-0.5
	c0.1-0.3,0.3-0.4,0.5-0.6l1.6-1.5c0.8-0.6,1.5-1.1,2.4-1.6c3-1.8,5.1-2.4,6.5-1.8c0.4,0.2,0.9,0.7,6,5.8c0.9,0.9,1.6,1.6,1.9,1.9
	l30.5,30.5c0.8,0.8,1.5,1.6,2.3,2.3c1.9,1.9,3.6,3.7,5.2,5.2l22.8,22.8c2.7,2.9,7,7.1,11.6,11.5c6,5.8,12.1,11.8,15.1,15.2
	c1.1,1.2,4.5,4.5,8.1,8c4.8,4.7,9.7,9.5,11,11.1l0.3,0.4L213.7,142.2z"/>
<path d="M187.1,191.3c-2.4-3.6-44.4-45.2-58.3-58.9c-3.6-3.5-6.1-6-6.9-6.9c-0.5-0.6-1.9-1.9-3.7-3.8C70.2,73.2,58,61.5,56.3,60.3
	c-2-0.6-3.8,1.1-5.6,3.1c-0.3,0.4-0.7,0.7-0.9,1c-2.3,2.2-4.4,4.3-6.6,6.6L23.4,90.9c-1.2,1.2-2.2,2.1-3.3,3.3
	c-0.2,0.2-0.4,0.4-0.6,0.6c-0.3,0.3-0.6,0.6-0.9,0.9l-1.3,1.6v1.2c1.4,2.4,3.1,3.9,5,5.8c0.7,0.7,1.5,1.4,2.3,2.2l123.9,123.6h1.6
	c0,0,0,0,0,0l0.2-0.1l12.8-12.4c1.8-1.9,4.6-4.6,7.6-7.5c5.7-5.6,12.3-12,15.3-15.4C186.9,193.5,187.4,192.6,187.1,191.3z
	 M172.3,200.2c-1.7,1.8-3.3,3.4-5,5.1c-0.8,0.8-1.6,1.5-2.3,2.3l-15.2,15.2l-0.8-0.3l-7.4-7.4c0.9-1.4,4.1-4.3,5.1-5.3
	c1.4-1.3,4.6-4.2,5.3-5.6c-0.5-0.9-0.2-0.4-1-1.2c-0.6-0.6-0.6-0.7-1.2-1.1c-2,0.8-8.6,8.9-11.1,10.5l-7.5-7.5
	c1.1-1.4,8.7-8.4,10.6-10.8l-2-2.4c-2.4,0.8-8.2,8.4-11.2,10.5l-6.8-6.8c1.9-2.5,8.3-7.9,10.6-10.8c-0.5-1-1.1-1.5-2.2-2.3
	c-1.1,0.4-6.6,6.2-8.2,7.8l-2.9,2.6l-6.2-6.2c1.9-2.6,13.5-13.6,16-16.2c1.6-1.7,4.3-4,5.6-5.6c-0.4-0.9-1.5-2-2.4-2.4
	c-1.7,1.3-3.8,3.8-5.5,5.4c-1.9,1.9-3.5,3.5-5.4,5.4c-1.4,1.4-9.2,9.6-11,10.7l-5.8-5.8c1-1.4,3.8-3.9,5.1-5.3
	c1.9-1.9,3.7-3.5,5.4-5.5c-0.5-1-1-1.5-2.1-2.3c-1.3,0.3-4.4,4-5.6,5.1c-1,0.9-1.7,1.7-2.6,2.6l-2.1,2.1c-0.8,0.6-0.3,0.3-0.8,0.6
	l-7.5-7.5c1.3-2,3.4-3.6,5.1-5.3c1.7-1.8,3.9-3.6,5.3-5.5c-0.5-1.4-1.4-1.9-2.4-2.4c-1.7,1.6-9.3,9.6-10.8,10.5l-6.8-6.8
	c1.4-2.7,9.9-9.3,10.4-11.1c-1-1.2-1.1-1.5-2.3-2.1c-1.9,1.8-9.1,9.5-10.8,10.5l-7-7c4.8-4.2,11.3-11.3,16.3-16.2
	c1.6-1.5,4.2-3.9,5.3-5.5c-0.6-1.1-1.4-1.9-2.5-2.4l-21.7,21.6l-6.8-6.8c0,0,0-0.1-0.1-0.1c2.3-2.7,9.5-9.1,10.5-10.9
	c-0.8-1.2-0.9-1.4-2.2-2.2c-1.3,0.8-3.9,3.7-5.4,5.2c-1.7,1.7-3.9,4.2-5.4,5.3c0,0,0,0,0,0l-7.5-7.5c0.9-1.5,3.9-4.1,5.1-5.3
	c1.1-1.1,4.8-4.5,5.3-5.6l-2.2-2.4c-2.3,1.5-9,9.5-11.1,10.6l-6.8-6.8l10.7-10.7c-0.9-1.3-1.6-1.8-2.3-2.6c-2.6,2-8.7,9.1-10.9,10.6
	c-0.1,0-0.1-0.1-0.2-0.1l-6.7-6.7l21.7-21.9c-0.7-0.9-1.5-1.7-2.4-2.3L54,86.7c-4.4,4.8-10.3,10.2-15.1,15.1c-1,1.1-4.2,4.4-5.5,5.3
	l-8.8-8.8l0.2-0.4c0.5-1,3.9-4.6,19.9-20.4l2.2-2.2c0.6-0.6,1.3-1.4,2.1-2.1c1.8-1.9,3.9-4.1,5.5-5.2l0.9-0.7l0.9,0.7
	c2.9,2.2,91.5,91.3,92.3,92.2l23.2,23.1c0.6,0.6,1.4,1.4,2.2,2.1c2,1.9,4.2,4,5.5,5.8l0.8,1L172.3,200.2z"/>
</svg>
