<?xml version="1.0" encoding="UTF-8"?>
<!DOCTYPE svg PUBLIC "-//W3C//DTD SVG 1.1//EN" "http://www.w3.org/Graphics/SVG/1.1/DTD/svg11.dtd">
<!-- Creator: CorelDRAW 2017 -->
<svg xmlns="http://www.w3.org/2000/svg" xml:space="preserve" width="48px" height="48px" version="1.1" style="shape-rendering:geometricPrecision; text-rendering:geometricPrecision; image-rendering:optimizeQuality; fill-rule:evenodd; clip-rule:evenodd"
viewBox="0 0 48 48"
 xmlns:xlink="http://www.w3.org/1999/xlink"
 enable-background="new 0 0 1000 1000">
 <defs>
  <style type="text/css">
   <![CDATA[
    .str0 {stroke:black;stroke-width:0.9;stroke-miterlimit:22.9256}
    .fil1 {fill:none;fill-rule:nonzero}
    .fil0 {fill:black}
   ]]>
  </style>
 </defs>
 <g id="Слой_x0020_1">
  <metadata id="CorelCorpID_0Corel-Layer"/>
  <g>
   <path class="fil0" d="M2.62 32.6c0.93,-1.36 2.66,-1.99 4.1,-0.66 1.7,1.57 1.44,2.91 2.37,4.29 0.7,-0.3 0.58,-0.3 1.47,-0.67 0.63,-0.28 1.38,-0.46 2.05,-0.51 0.75,1.64 0.54,2.01 1.89,3.48 0.85,0.92 2.34,1.77 2.83,2.34 -2.07,1.67 -9.18,3.89 -11.88,3.6 -4.66,-0.5 -4.84,-8.96 -2.83,-11.87zm25.87 -21.44c0.43,0 0.77,0.5 0.77,1.1 0,0.61 -0.34,1.1 -0.77,1.1 -0.42,0 -0.76,-0.49 -0.76,-1.1 0,-0.6 0.34,-1.1 0.76,-1.1zm-8.93 0c0.42,0 0.77,0.5 0.77,1.1 0,0.61 -0.35,1.1 -0.77,1.1 -0.42,0 -0.77,-0.49 -0.77,-1.1 0,-0.6 0.35,-1.1 0.77,-1.1zm3.55 3.04c-1.8,0.96 0.23,2.59 1.7,1.69 1.34,-0.81 -0.03,-2.59 -1.7,-1.69zm-0.03 -1.66c5.49,-1.04 7.57,5.37 1.92,6.36 -5.36,0.93 -7.72,-5.26 -1.92,-6.36zm-1.79 0.07c-2.28,1.14 -2.88,3.67 -1.03,5.53 2.68,2.7 10.09,1.35 8.23,-3.67 -1.01,-2.72 -4.83,-3.06 -7.2,-1.86zm21.6 31.63c-3.26,0.46 -9.19,-1.84 -12,-3.56 0.47,-0.68 1.98,-1.62 2.69,-2.41 1.16,-1.3 1.22,-2.64 1.9,-3.6l3.39 1.21c1.46,-1.95 2.52,-7.58 6.62,-3.44 1.78,2.32 1.91,11.16 -2.6,11.8zm-17.09 -21.69c3.84,-2.56 4.75,1.61 2.86,3.35 -1.38,0.34 -1.87,-0.06 -2.95,-0.85l0.09 -2.5zm-3.59 2.78c-1.62,0.64 -3.6,1.62 -3.69,-1.35 -0.07,-2.37 1.7,-2.9 3.49,-1.6l0.2 2.95zm0.91 -0.35c-0.6,-1.16 -0.59,-1.6 -0.01,-2.82l1.59 0.06c0.6,1.14 0.6,1.62 0.01,2.82l-1.59 -0.06zm-10.69 9.02l-3.13 1.17c-0.48,-1.79 -1.16,-2.04 0.34,-3.62 1.51,-1.59 0.85,-1.56 1.64,-3.5 0.85,-2.07 2.69,-4.31 4.62,-5.4 -1.64,3.89 -3.4,3.89 -3.47,11.35zm19.27 -11.6c1.95,0.81 4.23,3.51 5.07,5.42 0.74,1.68 0.31,2.31 1.56,3.59 1.24,1.27 1.37,2.22 0.2,3.54l-3.12 -0.96c0.45,-5.42 -1.43,-7.39 -3.71,-11.59zm-1.99 -0.87c1.31,0.41 3.16,3.92 3.76,5.24 3.84,8.56 -1.05,15.04 -9.81,14.92 -4.62,-0.07 -9.86,-2.69 -10.47,-7.72 -0.67,-5.43 3.53,-12.7 5.05,-12.29 0.33,0.81 -1.43,3.21 0.83,4.82 1.24,0.31 1.85,0.27 2.88,-0.39 1.53,-1 0.59,-0.26 2.39,-0.48 1.81,-0.22 0.29,-0.41 1.92,0.61 0.91,0.57 1.74,0.54 2.7,0.22 2.16,-1.51 0.71,-3.57 0.75,-4.93zm-8.2 -17.6c5.28,-1.12 11.05,1.55 12.47,6.9 1.07,4.01 -1.07,8.31 -4.21,10.02 -1.11,0.61 -0.99,0.15 -2.23,0.31 -0.99,0.12 -1.14,0.5 -1.7,0.63 -1.24,0.29 -0.39,-0.33 -1.93,-0.34 -1.35,-0.02 -0.76,0.54 -1.82,0.22 -1.4,-0.43 -3.38,-0.5 -3.99,-0.85 -6.67,-3.76 -6.04,-14.88 3.41,-16.89zm9.85 1.8c0.5,-2.44 4.75,-2.83 6.52,-0.33 1.69,2.41 0.09,5.61 -2.9,5.97 -0.48,-0.63 -0.79,-1.95 -1.25,-2.84 -0.53,-1.02 -1.4,-2.18 -2.37,-2.8zm-18.42 5.56c-6.85,-2.51 -0.05,-11.27 3.97,-6.06 -0.58,0.87 -1.64,1.5 -2.42,2.66 -0.81,1.18 -1.13,2.78 -1.55,3.4zm4.86 -6.55c-1.49,-0.65 -1.51,-1.72 -3.9,-1.71 -5.45,0.02 -6.22,7.7 -1,8.91 0.14,4.66 0.98,6.13 4.25,9.13 -8.2,4.88 -5.27,7.69 -9.21,11.45 -1.62,-3.7 -6.06,-2 -6.95,2.22 -0.59,2.79 -0.3,8.41 2.61,9.84 2.84,1.39 7.7,-0.25 10.44,-1.45 1.01,-0.45 3.58,-1.92 4.44,-1.87 1.66,0.11 3.1,1.06 5.7,1.01 2.48,-0.04 3.26,-0.67 5.33,-1.11 1.44,-0.31 9.93,5.63 14.87,3.29 2.87,-1.36 3.17,-6.96 2.7,-9.69 -0.72,-4.27 -5.34,-6.12 -6.92,-2.48 -2.72,-2.09 -2.02,-3.98 -3.83,-6.58 -1.87,-2.67 -4.52,-3.62 -5.48,-4.87 2.95,-1.93 4.21,-5.07 4.11,-8.75 9.01,-1.28 1.84,-14.32 -4.26,-6.95 -4.1,-2.72 -8.59,-2.82 -12.9,-0.39z"/>
   <path id="1" class="fil1 str0" d="M2.62 32.6c0.93,-1.36 2.66,-1.99 4.1,-0.66 1.7,1.57 1.44,2.91 2.37,4.29 0.7,-0.3 0.58,-0.3 1.47,-0.67 0.63,-0.28 1.38,-0.46 2.05,-0.51 0.75,1.64 0.54,2.01 1.89,3.48 0.85,0.92 2.34,1.77 2.83,2.34 -2.07,1.67 -9.18,3.89 -11.88,3.6 -4.66,-0.5 -4.84,-8.96 -2.83,-11.87zm25.87 -21.44c0.43,0 0.77,0.5 0.77,1.1 0,0.61 -0.34,1.1 -0.77,1.1 -0.42,0 -0.76,-0.49 -0.76,-1.1 0,-0.6 0.34,-1.1 0.76,-1.1zm-8.93 0c0.42,0 0.77,0.5 0.77,1.1 0,0.61 -0.35,1.1 -0.77,1.1 -0.42,0 -0.77,-0.49 -0.77,-1.1 0,-0.6 0.35,-1.1 0.77,-1.1zm3.55 3.04c-1.8,0.96 0.23,2.59 1.7,1.69 1.34,-0.81 -0.03,-2.59 -1.7,-1.69zm-0.03 -1.66c5.49,-1.04 7.57,5.37 1.92,6.36 -5.36,0.93 -7.72,-5.26 -1.92,-6.36zm-1.79 0.07c-2.28,1.14 -2.88,3.67 -1.03,5.53 2.68,2.7 10.09,1.35 8.23,-3.67 -1.01,-2.72 -4.83,-3.06 -7.2,-1.86zm21.6 31.63c-3.26,0.46 -9.19,-1.84 -12,-3.56 0.47,-0.68 1.98,-1.62 2.69,-2.41 1.16,-1.3 1.22,-2.64 1.9,-3.6l3.39 1.21c1.46,-1.95 2.52,-7.58 6.62,-3.44 1.78,2.32 1.91,11.16 -2.6,11.8zm-17.09 -21.69c3.84,-2.56 4.75,1.61 2.86,3.35 -1.38,0.34 -1.87,-0.06 -2.95,-0.85l0.09 -2.5zm-3.59 2.78c-1.62,0.64 -3.6,1.62 -3.69,-1.35 -0.07,-2.37 1.7,-2.9 3.49,-1.6l0.2 2.95zm0.91 -0.35c-0.6,-1.16 -0.59,-1.6 -0.01,-2.82l1.59 0.06c0.6,1.14 0.6,1.62 0.01,2.82l-1.59 -0.06zm-10.69 9.02l-3.13 1.17c-0.48,-1.79 -1.16,-2.04 0.34,-3.62 1.51,-1.59 0.85,-1.56 1.64,-3.5 0.85,-2.07 2.69,-4.31 4.62,-5.4 -1.64,3.89 -3.4,3.89 -3.47,11.35zm19.27 -11.6c1.95,0.81 4.23,3.51 5.07,5.42 0.74,1.68 0.31,2.31 1.56,3.59 1.24,1.27 1.37,2.22 0.2,3.54l-3.12 -0.96c0.45,-5.42 -1.43,-7.39 -3.71,-11.59zm-1.99 -0.87c1.31,0.41 3.16,3.92 3.76,5.24 3.84,8.56 -1.05,15.04 -9.81,14.92 -4.62,-0.07 -9.86,-2.69 -10.47,-7.72 -0.67,-5.43 3.53,-12.7 5.05,-12.29 0.33,0.81 -1.43,3.21 0.83,4.82 1.24,0.31 1.85,0.27 2.88,-0.39 1.53,-1 0.59,-0.26 2.39,-0.48 1.81,-0.22 0.29,-0.41 1.92,0.61 0.91,0.57 1.74,0.54 2.7,0.22 2.16,-1.51 0.71,-3.57 0.75,-4.93zm-8.2 -17.6c5.28,-1.12 11.05,1.55 12.47,6.9 1.07,4.01 -1.07,8.31 -4.21,10.02 -1.11,0.61 -0.99,0.15 -2.23,0.31 -0.99,0.12 -1.14,0.5 -1.7,0.63 -1.24,0.29 -0.39,-0.33 -1.93,-0.34 -1.35,-0.02 -0.76,0.54 -1.82,0.22 -1.4,-0.43 -3.38,-0.5 -3.99,-0.85 -6.67,-3.76 -6.04,-14.88 3.41,-16.89zm9.85 1.8c0.5,-2.44 4.75,-2.83 6.52,-0.33 1.69,2.41 0.09,5.61 -2.9,5.97 -0.48,-0.63 -0.79,-1.95 -1.25,-2.84 -0.53,-1.02 -1.4,-2.18 -2.37,-2.8zm-18.42 5.56c-6.85,-2.51 -0.05,-11.27 3.97,-6.06 -0.58,0.87 -1.64,1.5 -2.42,2.66 -0.81,1.18 -1.13,2.78 -1.55,3.4zm4.86 -6.55c-1.49,-0.65 -1.51,-1.72 -3.9,-1.71 -5.45,0.02 -6.22,7.7 -1,8.91 0.14,4.66 0.98,6.13 4.25,9.13 -8.2,4.88 -5.27,7.69 -9.21,11.45 -1.62,-3.7 -6.06,-2 -6.95,2.22 -0.59,2.79 -0.3,8.41 2.61,9.84 2.84,1.39 7.7,-0.25 10.44,-1.45 1.01,-0.45 3.58,-1.92 4.44,-1.87 1.66,0.11 3.1,1.06 5.7,1.01 2.48,-0.04 3.26,-0.67 5.33,-1.11 1.44,-0.31 9.93,5.63 14.87,3.29 2.87,-1.36 3.17,-6.96 2.7,-9.69 -0.72,-4.27 -5.34,-6.12 -6.92,-2.48 -2.72,-2.09 -2.02,-3.98 -3.83,-6.58 -1.87,-2.67 -4.52,-3.62 -5.48,-4.87 2.95,-1.93 4.21,-5.07 4.11,-8.75 9.01,-1.28 1.84,-14.32 -4.26,-6.95 -4.1,-2.72 -8.59,-2.82 -12.9,-0.39z"/>
  </g>
 </g>
</svg>
