<?xml version="1.0" encoding="utf-8"?>
<!-- Generator: Adobe Illustrator 20.1.0, SVG Export Plug-In . SVG Version: 6.00 Build 0)  -->
<svg version="1.1" id="Слой_1" xmlns="http://www.w3.org/2000/svg" xmlns:xlink="http://www.w3.org/1999/xlink" x="0px" y="0px"
	 viewBox="0 0 250 250" style="enable-background:new 0 0 250 250;" xml:space="preserve">
<style type="text/css">
	.st0{fill:none;}
</style>
<g>
	<path d="M140.7,233.8c-10.2,0-20.3,0-30.5,0c-0.9-0.5-1.8-1.3-2.8-1.5C43.9,222.3,0.7,156.2,22.6,91c18-53.6,71.9-83.8,125.9-71.6
		c42.3,9.5,69.4,36.5,81.9,78c1.3,4.2,2.3,8.5,3.5,12.7c0,10.2,0,20.3,0,30.5c-1.1,4-2.1,7.9-3.3,11.9
		c-12.1,41.7-39.2,67.9-81.2,78.8C146.5,232.1,143.6,233,140.7,233.8z M193.3,160.2c10.6-6,20.5-11.6,30.9-17.4
		c0-6.2,0.1-11.8,0-17.4c-0.1-5.9-0.4-11.7-0.6-17.8c-10.4-5.8-20.3-11.3-30.3-16.9c-10.8,6.1-21.1,11.8-31.3,17.5
		c0,11.7,0,22.8,0,34.4C172.2,148.4,182.4,154.1,193.3,160.2z M121.1,160.1c10.8-6,21.1-11.7,31.2-17.4c0-11.9,0-23.1,0-34.7
		c-10.4-5.7-20.6-11.4-31.2-17.3c-10.5,5.8-20.8,11.5-30.9,17.1c0,12,0,23.5,0,35.2C100.4,148.6,110.4,154.2,121.1,160.1z
		 M125.8,47.9c0,11.8,0,22.9,0,34.5c10.5,5.8,20.9,11.6,31.3,17.5C167.8,94,178,88.3,188,82.7c0-11.9,0-23.1,0-35
		c-10.9-5.3-20.4-13.4-32.6-16.3C145.4,37,135.8,42.3,125.8,47.9z M125.9,168.2c0,11.9,0,23.4,0,34.8c10.1,5.6,19.9,11,30.4,16.8
		c11.4-4.8,21.9-10.9,31.6-17.3c0-12.2,0-23.3,0-34.5c-10.3-5.8-20.3-11.5-30.2-17.1C147.1,156.7,136.7,162.3,125.9,168.2z
		 M116.3,48c-9.3-5.2-18.1-10-26.9-14.9c-14.2,5.8-26.3,13.6-36.1,24.8c-0.2,8.4-0.5,16.4,0.2,24.5c10.8,6,21,11.7,31.4,17.5
		c10.6-6,21.1-11.9,31.3-17.7C116.3,70.6,116.3,59.7,116.3,48z M53.4,192.5c10,12,25.4,22.2,37.3,24.6c8.3-4.7,17-9.6,25.8-14.6
		c0-6.3,0-11.9,0-17.5c0-5.6-0.1-11.1-0.1-16.5c-11.1-6.1-21.4-11.8-32-17.7c-10.4,5.9-20.8,11.9-31.1,17.7
		C53.4,177.2,53.4,185,53.4,192.5z M79.7,107.9C69,102,58.7,96.3,48.6,90.8c-6.8,3.8-12.9,7.2-19.3,10.8c-3.5,16-3.5,31.8,0,47.8
		c6.5,3.6,12.9,7.1,19.4,10.7c10.6-5.9,20.8-11.5,31-17.2C79.7,131.1,79.7,119.8,79.7,107.9z M198.5,82.7c3.4,1.9,6.5,3.9,9.8,5.4
		c3.3,1.5,6.1,4.5,10.8,4.9c-4.5-13.1-10.9-23.9-20.5-34.4C198.5,67.3,198.5,74.6,198.5,82.7z M198.4,192.4
		c9.7-11,16.4-21.6,20.7-35.7c-8,4.4-14.4,7.9-20.7,11.4C198.4,176,198.4,183.3,198.4,192.4z M102.1,29.5c7.2,3.8,13.1,7,18.9,10.1
		c4-2.2,7.4-4,10.9-5.9c3.2-1.8,6.3-3.6,11.1-6.4C128.5,27,115.9,25.3,102.1,29.5z M103,220.9c9,3.6,28,4.2,38.5,1.5
		c-6.9-3.8-13.5-7.4-20.4-11.3C115.2,214.4,109.3,217.5,103,220.9z M34.1,86.7c0.3,0.2,0.7,0.5,1,0.7c3-1.7,6.1-3.5,8.8-5
		c0-4.3,0-8.1,0-13.9C39.9,75.7,37,81.2,34.1,86.7z M35.3,163.5c-0.4,0.2-0.8,0.5-1.3,0.7c3,5.5,5.9,10.9,9.8,18.1
		c0-5.9,0-9.7,0-13.9C41.1,166.8,38.2,165.2,35.3,163.5z"/>
</g>
</svg>
