<?xml version="1.0" encoding="utf-8"?>
<!-- Generator: Adobe Illustrator 20.1.0, SVG Export Plug-In . SVG Version: 6.00 Build 0)  -->
<svg version="1.1" id="Слой_1" xmlns="http://www.w3.org/2000/svg" xmlns:xlink="http://www.w3.org/1999/xlink" x="0px" y="0px"
	 viewBox="0 0 250 250" style="enable-background:new 0 0 250 250;" xml:space="preserve">
<path d="M89.7,227.7c-8.6,0-16.7-3.4-23-9.5c-2.6-2.6-4.7-5.7-6.2-9.4c-1.2-2.9-2.1-6-2.8-8.6c-0.6-2.2-0.9-4-1.1-5.6
	c-0.5,0-1.4-0.1-2.6-0.1c0,0,0,0,0,0c-3.9,0-7.6-0.9-11-2.5c-3.3-1.6-6.5-4-9.3-6.8c-3-3-5.3-6.5-7-10.4c-1.7-4.2-2.5-8.4-2.5-12.5
	c0-4.3,0.9-8.5,2.5-12.5c1.7-4.1,4.1-7.6,7-10.5c6.2-6.2,14.3-9.5,23-9.5c9.4,0,15,1.5,18.6,2.5c4.1,1.1,4.7,1.3,7.2-0.5
	c3.9-2.7,10.6-9.7,21.2-21.1l0.4-0.4c18.3-18.5,27.5-27.7,31.5-33.2c2.8-3.8,2.5-4.3,0.9-8.2c-1.3-3.1-3.1-7.3-4-14.5l0-0.5
	c0-8.6,3.5-16.9,9.5-23c6.2-6.2,14.3-9.5,23-9.5c8.6,0,16.9,3.5,23,9.5c5.3,5.3,7.1,11.4,8.8,16.9l0.9,2.9c0.4,1.3,0.9,2.9,1.2,3.4
	c0.2,0.1,0.8,0.3,2.6,0.4c3.4,0.2,7,1.2,10.5,2.8c3.4,1.6,6.3,3.8,9.1,6.5c3,3,5.4,6.6,7,10.6c1.7,4.1,2.5,8.4,2.5,12.4
	c0,4.3-0.9,8.5-2.5,12.5c-1.7,4.1-4.1,7.6-7,10.5c-6.2,6.2-14.3,9.5-23,9.5c-7.9,0-12.3-1.7-15.5-2.9c-3.5-1.3-4.2-1.6-8.3,1.2
	c-5.9,4-16.5,14.2-32.9,30.4c-11.3,11.1-17.5,17.3-20,21.1c-1.8,2.8-1.6,3.9-0.8,8.6c0.7,3.8,1.6,9,1.6,17.4c0,8.6-3.5,16.9-9.5,23
	C106.6,224.3,98.4,227.7,89.7,227.7z M65,193.1l0,0.1c0.2,1.5,0.4,2.9,0.9,4.7c0.6,2.3,1.4,5,2.4,7.5c1.1,2.6,2.6,4.9,4.4,6.7
	c4.6,4.5,10.7,7.1,17,7.1c6.4,0,12.4-2.5,17-7.1c4.5-4.5,7.1-10.7,7.1-17c0-7.7-0.8-12.5-1.4-16c-2.1-12.1-0.7-13.6,23.2-37.2
	c35.9-35.4,39.1-37.6,50.2-33.5c2.8,1,6.2,2.3,12.5,2.3c6.4,0,12.4-2.5,17-7.1c2.1-2.1,3.9-4.8,5.2-7.9c1.3-2.9,1.9-5.9,1.9-9.1
	c0-2.9-0.7-6.1-1.9-9.2c-1.2-2.9-3-5.6-5.2-7.8c-2.1-2.1-4.3-3.7-6.7-4.9c-2.4-1.1-5-1.8-7.4-2c-8.2-0.6-9.6-3.9-11.3-9.8l-0.9-2.9
	c-1.5-4.9-2.9-9.6-6.7-13.3c-4.5-4.5-10.7-7.1-17-7.1c-6.4,0-12.4,2.5-17,7.1c-4.4,4.4-7,10.5-7.1,16.7c0.8,5.8,2.2,9.2,3.4,12
	c2.3,5.5,3.3,9.3-1.9,16.5c-4.4,6-13.7,15.4-32.3,34.2l-0.3,0.3c-22.9,24.4-25.3,27-36.8,23.9c-3.4-0.9-8.2-2.2-16.4-2.2
	c-6.4,0-12.4,2.5-17,7.1c-2.1,2.1-3.9,4.8-5.2,7.9c-1.3,2.9-1.9,5.9-1.9,9.1c0,3,0.6,6,1.9,9.2c1.2,2.9,3,5.5,5.2,7.7
	c2.2,2.2,4.6,4,7.1,5.2c2.2,1.1,4.5,1.7,7.1,1.7C59.2,186,64.4,186.4,65,193.1z"/>
</svg>
