<?xml version="1.0" encoding="utf-8"?>
<!-- Generator: Adobe Illustrator 19.2.1, SVG Export Plug-In . SVG Version: 6.00 Build 0)  -->
<svg version="1.1" id="Слой_1" xmlns="http://www.w3.org/2000/svg" xmlns:xlink="http://www.w3.org/1999/xlink" x="0px" y="0px"
	 viewBox="0 0 250 250" style="enable-background:new 0 0 250 250;" xml:space="preserve">
<g>
	<path d="M109,193.6c-4.4,0-8.6-1.7-11.7-4.8l-36.1-36.1c-6.4-6.4-6.4-16.9,0-23.3L130.6,60c3.1-3.1,7.3-4.8,11.7-4.8
		s8.6,1.7,11.7,4.8L190,96.1c6.4,6.4,6.4,16.9,0,23.3l0,0l-69.4,69.4C117.5,191.9,113.4,193.6,109,193.6z M142.2,64.2
		c-2,0-3.9,0.8-5.3,2.2l-69.4,69.4c-2.9,2.9-2.9,7.7,0,10.6l36.1,36.1c1.4,1.4,3.3,2.2,5.3,2.2c2,0,3.9-0.8,5.3-2.2l69.4-69.4
		c2.9-2.9,2.9-7.7,0-10.6l-36.1-36.1C146.1,64.9,144.2,64.2,142.2,64.2z M186.8,116.3L186.8,116.3L186.8,116.3z"/>
</g>
<g>
	<path d="M63.5,242.7c-1.2,0-2.3-0.5-3.2-1.3L8.6,189.7c-1.1-1.1-1.6-2.8-1.2-4.3c0.4-1.6,1.6-2.8,3.2-3.2l70.6-18.9
		c1.6-0.4,3.2,0,4.3,1.2s1.6,2.8,1.2,4.3l-18.9,70.6c-0.4,1.6-1.6,2.8-3.2,3.2C64.3,242.7,63.9,242.7,63.5,242.7z M20.5,188.8
		l40.7,40.7l14.9-55.6L20.5,188.8z"/>
</g>
<g>
	<path d="M168.8,85.7c-1.2,0-2.3-0.5-3.2-1.3c-1.1-1.1-1.6-2.8-1.2-4.3l18.9-70.6c0.4-1.6,1.6-2.8,3.2-3.2c1.6-0.4,3.2,0,4.3,1.2
		l51.7,51.7c1.1,1.1,1.6,2.8,1.2,4.3c-0.4,1.6-1.6,2.8-3.2,3.2l-70.6,18.9C169.6,85.7,169.2,85.7,168.8,85.7z M190,19.3l-14.9,55.6
		L230.7,60L190,19.3z"/>
</g>
</svg>
