<?xml version="1.0" encoding="utf-8"?>
<!-- Generator: Adobe Illustrator 21.1.0, SVG Export Plug-In . SVG Version: 6.00 Build 0)  -->
<svg version="1.1" id="Слой_1" xmlns="http://www.w3.org/2000/svg" xmlns:xlink="http://www.w3.org/1999/xlink" x="0px" y="0px"
	 viewBox="0 0 201.3 201.3" style="enable-background:new 0 0 201.3 201.3;" xml:space="preserve">
<style type="text/css">
	.st0{fill-rule:evenodd;clip-rule:evenodd;}
</style>
<title>cosm</title>
<path class="st0" d="M14.3,99.2c0-9,14.2-21.3,19.9-24.1c7.7-3.7,11.8,4.9,19.7,11.9c1.8,1.6,2.4,1.7,4.2,3.3
	c5.1,4.7,9.6,9.6,14.5,14.5l39,38.2c1.6,1.8,1.7,2.4,3.3,4.2c14.6,15.8,20.1,13.4,0.8,32.8c-4.4,4.5-10.9,11.2-17.4,5.4
	c-17.6-15.4-33.6-32.1-50.1-48.6c-1.2-1.2-2.2-2-3.3-3.3l-24.1-25.7C19.4,106.2,14.3,100.7,14.3,99.2L14.3,99.2z M101.4,96.7
	c0,4.1,21.1,20.6,27.8,29.4c2.5,3.2,4,4.4,6.5,7.6l6.5,7.6c2.3,2.8,4.3,5,6.4,7.7c7.3,9.4,9.5,8-4.8,24.2l-13.5,12.2l-3.2-2.6
	c1.9-2.9,4.9-5.2,7.6-8.7c10.9-14.5,4.1-13.9-4.9-25.5c-7.4-9.5-64.9-67.6-75.6-77c-14.8-13.1-15.6-17.2-37.7,5l-8.7,9.5
	C4,90.1,1,94.1,1,100c0,3.6,7.5,11.2,10.6,14.3l44,43.9c2.6,2.6,4.1,3.5,6.6,5.8l18.6,18.7c21.1,19.5,19.2,21,31,13.1
	c3.4-2.3,5.4-4.1,8.6-6.3c4.5,3,6.8,8.9,13.9,4.9c4.4-2.5,31.7-30.3,31.7-36.4c0-6.8-7.1-13.7-11.4-18.5l-34.8-36.5
	c-2.5-2.5-5.9-4.5-6.8-8.1c6.3-9.5,9.4-7.1,12.2-7.7c2.6-0.5,9.9-6.3,12.5-8.2c28.1-20.8,31.8-23.6,55.1-48.6
	c4.8-5.2,7.3-6.3,7.3-15.1c0-13.1-15.9-17.9-24.6-11.3c-1.9,1.5-4.3,3.3-5.9,4.9c-17.8,16.4-37.5,39.9-51.3,59.8
	c-10.2,14.8,0,7.6-7.6,14.8C107.7,86.5,101.4,91.7,101.4,96.7z"/>
</svg>
