<?xml version="1.0" encoding="utf-8"?>
<!-- Generator: Adobe Illustrator 20.1.0, SVG Export Plug-In . SVG Version: 6.00 Build 0)  -->
<svg version="1.1" id="Слой_1" xmlns="http://www.w3.org/2000/svg" xmlns:xlink="http://www.w3.org/1999/xlink" x="0px" y="0px"
	 viewBox="0 0 250 250" style="enable-background:new 0 0 250 250;" xml:space="preserve">
<path d="M182.8,52.5c-4.7,0-8.5-3.8-8.5-8.5s3.8-8.5,8.5-8.5c4.7,0,8.5,3.8,8.5,8.5S187.5,52.5,182.8,52.5z M182.8,43.7
	c-0.1,0-0.3,0.2-0.3,0.3s0.2,0.3,0.3,0.3s0.3-0.2,0.3-0.3S182.9,43.7,182.8,43.7z"/>
<path d="M158.8,52.5c-4.7,0-8.5-3.8-8.5-8.5s3.8-8.5,8.5-8.5c4.7,0,8.5,3.8,8.5,8.5S163.5,52.5,158.8,52.5z M158.8,43.7
	c-0.1,0-0.3,0.2-0.3,0.3s0.2,0.3,0.3,0.3s0.3-0.2,0.3-0.3S158.9,43.7,158.8,43.7z"/>
<path d="M134.8,52.5c-4.7,0-8.5-3.8-8.5-8.5s3.8-8.5,8.5-8.5c4.7,0,8.5,3.8,8.5,8.5S139.5,52.5,134.8,52.5z M134.8,43.7
	c-0.1,0-0.3,0.2-0.3,0.3s0.2,0.3,0.3,0.3s0.3-0.2,0.3-0.3S134.9,43.7,134.8,43.7z"/>
<path d="M110.7,52.5c-4.7,0-8.5-3.8-8.5-8.5c0-0.1,0-0.1,0-0.2c0.2-4.7,3.9-8.3,8.5-8.3c4.7,0,8.5,3.8,8.5,8.5
	S115.4,52.5,110.7,52.5z M110.4,44.1c0,0.1,0.2,0.3,0.3,0.3c0.1,0,0.3-0.2,0.3-0.3s-0.2-0.3-0.3-0.3
	C110.6,43.7,110.4,43.8,110.4,44.1z"/>
<path d="M67.2,52.5c-4.7,0-8.5-3.8-8.5-8.5c0-0.1,0-0.1,0-0.2c0.2-4.7,3.9-8.3,8.5-8.3c4.7,0,8.5,3.8,8.5,8.5S71.9,52.5,67.2,52.5z
	 M66.9,44.1c0,0.1,0.2,0.3,0.3,0.3c0.1,0,0.3-0.2,0.3-0.3s-0.2-0.3-0.3-0.3C67.1,43.7,66.9,43.8,66.9,44.1z"/>
<path d="M179,169.5H70.9c-6.3,0-11.5-5.2-11.5-11.5v-57c0,0,0-0.1,0-0.1c0.2-6.3,5.3-11.4,11.5-11.4H179c6.3,0,11.5,5.1,11.5,11.5
	v57C190.5,164.3,185.3,169.5,179,169.5z M67.6,101.1V158c0,1.8,1.5,3.3,3.3,3.3H179c1.8,0,3.3-1.5,3.3-3.3v-57
	c0-1.9-1.5-3.3-3.3-3.3H70.9C69.2,97.7,67.6,99.3,67.6,101.1z"/>
<path d="M209.2,234.2H40.8c-5.9,0-14.4-8.5-14.4-14.4v-26.5c0-2.3,1.8-4.1,4.1-4.1s4.1,1.8,4.1,4.1v26.5c0.3,1.7,4.5,5.9,6.3,6.2
	l168.3,0c1.7-0.3,5.9-4.5,6.2-6.3l0-26.4c0-2.3,1.8-4.1,4.1-4.1s4.1,1.8,4.1,4.1v26.5C223.6,225.7,215.1,234.2,209.2,234.2z"/>
<path d="M219.5,196.1H30.6c-2.3,0-4.1-1.8-4.1-4.1V65.3c0-2.3,1.8-4.1,4.1-4.1h188.9c2.3,0,4.1,1.8,4.1,4.1V192
	C223.6,194.3,221.8,196.1,219.5,196.1z M34.7,187.9h180.7V69.4H34.7V187.9z"/>
<path d="M219.5,68.1c-2.3,0-4.1-1.8-4.1-4.1V32.8c-0.3-1.8-4.5-6-6.3-6.3H40.8c-1.7,0.3-5.9,4.5-6.2,6.3l0,31.2
	c0,2.3-1.8,4.1-4.1,4.1s-4.1-1.8-4.1-4.1V32.7c0-5.9,8.5-14.4,14.4-14.4h168.4c5.9,0,14.4,8.5,14.4,14.4V64
	C223.6,66.3,221.8,68.1,219.5,68.1z"/>
</svg>
